<svg xmlns="http://www.w3.org/2000/svg"  viewBox="0 0 100 100" width="400px" height="400px"><path fill="#eba272" d="M18,57.5V69c0,7.18,5.82,13,13,13h21.5h5h5l15-3.178C80.252,76.438,82,72.926,82,69v-1.5v-10v-25 h-4.5h-5h-5v-10h-5v5h-5h-5h-15v5h-15v10H18v10V57.5z"/><path fill="#60be92" d="M31,18c-7.18,0-13,5.82-13,13v11.5h4.5v-5v-5h10h5h5h10h5v-5h5h5h5h5h4.01 C79.98,22.023,74.965,18,69,18H57.5h-5H31z"/><polygon fill="#b07454" points="42.5,32.5 32.5,32.5 27.5,32.5 22.5,32.5 22.5,37.5 22.5,42.5 27.5,42.5 27.5,37.5 32.5,37.5 32.714,37.5 32.714,42.182 37.771,42.182 37.771,37.5 42.5,37.5"/><path fill="#b07454" d="M72.5,77.5h-5h-5V82H69c3.253,0,6.22-1.203,8.5-3.178V77.5H72.5z"/><rect width="5" height="5" x="62.5" y="37.5" fill="#b07454"/><rect width="5" height="5" x="62.5" y="22.5" fill="#b07454"/><polygon fill="#b07454" points="47.5,27.5 47.5,22.5 42.5,22.5 42.5,27.5 42.5,32.5 47.5,32.5 52.5,32.5 52.5,27.5"/><rect width="5" height="5" x="52.5" y="32.5" fill="#b07454"/><rect width="5" height="5" x="52.5" y="17.5" fill="#a1d3a2"/><rect width="5" height="5" x="57.5" y="27.5" fill="#b07454"/><polygon fill="#b07454" points="77.5,27.5 72.5,27.5 67.5,27.5 67.5,32.5 72.5,32.5 72.5,37.5 77.5,37.5 77.5,32.5 82.5,32.5 82.5,27.5"/><rect width="5" height="5" x="17.5" y="52.5" fill="#b07454"/><rect width="5" height="5" x="22.5" y="47.5" fill="#b07454"/><rect width="5" height="5" x="27.5" y="62.5" fill="#a3a3cd"/><polygon fill="#b07454" points="42.5,62.5 37.5,62.5 37.5,67.5 42.5,67.5 47.5,67.5 47.5,62.5"/><rect width="5" height="5" x="32.5" y="57.5" fill="#b07454"/><polygon fill="#b07454" points="72.5,42.5 67.5,42.5 67.5,47.5 72.5,47.5 77.5,47.5 77.5,42.5"/><rect width="5" height="5" x="62.5" y="47.5" fill="#a3a3cd"/><rect width="5" height="5" x="47.5" y="47.5" fill="#b07454"/><rect width="5" height="5" x="52.5" y="57.5" fill="#b07454"/><rect width="5" height="5" x="57.5" y="47.5" fill="#b07454"/><rect width="5" height="5" x="57.5" y="62.5" fill="#b07454"/><polygon fill="#b07454" points="77.5,57.5 77.5,52.5 72.5,52.5 72.5,57.5 72.5,62.5 77.5,62.5 77.5,67.5 82.5,67.5 82.5,62.5 82.5,57.5"/><polygon fill="#b07454" points="32.5,72.5 27.5,72.5 27.5,77.5 32.5,77.5 37.5,77.5 37.5,72.5"/><rect width="5" height="5" x="52.5" y="77.5" fill="#a3a3cd"/><path fill="#1f212b" d="M78,38h-6v-5h-5V23h-4v4.504h-0.5V28h-4.145v5H52v-5.5c0-0.276,0.224-0.5,0.5-0.5s0.5,0.224,0.5,0.5 V32h4.355v-5H62v-5h6v10h5v5h4v-5h4.5c0.276,0,0.5,0.224,0.5,0.5S81.776,33,81.5,33H78V38z"/><path fill="#1f212b" d="M62.5,53c-0.276,0-0.5-0.224-0.5-0.5V47h5.5c0.276,0,0.5,0.224,0.5,0.5S67.776,48,67.5,48H63v4.5 C63,52.776,62.776,53,62.5,53z M78,48h-2.5c-0.276,0-0.5-0.224-0.5-0.5s0.224-0.5,0.5-0.5H77v-4.5c0-0.276,0.224-0.5,0.5-0.5 s0.5,0.224,0.5,0.5V48z M72.5,48h-2c-0.276,0-0.5-0.224-0.5-0.5s0.224-0.5,0.5-0.5h2c0.276,0,0.5,0.224,0.5,0.5S72.776,48,72.5,48z"/><path fill="#1f212b" d="M42.5,33c-0.276,0-0.5-0.224-0.5-0.5v-2c0-0.276,0.224-0.5,0.5-0.5s0.5,0.224,0.5,0.5v2 C43,32.776,42.776,33,42.5,33z M39.5,33h-7c-0.276,0-0.5-0.224-0.5-0.5s0.224-0.5,0.5-0.5h7c0.276,0,0.5,0.224,0.5,0.5 S39.776,33,39.5,33z M52.5,28H47v-5h-4v4.5c0,0.276-0.224,0.5-0.5,0.5S42,27.776,42,27.5V22h6v5h4.5c0.276,0,0.5,0.224,0.5,0.5 S52.776,28,52.5,28z"/><path fill="#1f212b" d="M77.5,28h-10c-0.276,0-0.5-0.224-0.5-0.5s0.224-0.5,0.5-0.5h10c0.276,0,0.5,0.224,0.5,0.5 S77.776,28,77.5,28z"/><path fill="#1f212b" d="M77.5,68c-0.276,0-0.5-0.224-0.5-0.5V63h-5V52.5c0-0.276,0.224-0.5,0.5-0.5s0.5,0.224,0.5,0.5V62h5 v5.5C78,67.776,77.776,68,77.5,68z"/><path fill="#1f212b" d="M33,68h-5.5c-0.276,0-0.5-0.224-0.5-0.5s0.224-0.5,0.5-0.5H32v-5h5v-4h-4.5 c-0.276,0-0.5-0.224-0.5-0.5s0.224-0.5,0.5-0.5H38v6h-5V68z"/><path fill="#1f212b" d="M57.5,68c-0.276,0-0.5-0.224-0.5-0.5V63h-4.5c-0.276,0-0.5-0.224-0.5-0.5s0.224-0.5,0.5-0.5H58v5.5 C58,67.776,57.776,68,57.5,68z"/><path fill="#1f212b" d="M23,53h-5.5c-0.276,0-0.5-0.224-0.5-0.5s0.224-0.5,0.5-0.5H22v-5h5.5c0.276,0,0.5,0.224,0.5,0.5 S27.776,48,27.5,48H23V53z"/><path fill="#1f212b" d="M58,38h-5.5c-0.276,0-0.5-0.224-0.5-0.5s0.224-0.5,0.5-0.5H57v-4.5c0-0.276,0.224-0.5,0.5-0.5 s0.5,0.224,0.5,0.5V38z"/><path fill="#1f212b" d="M62.5,83c-0.276,0-0.5-0.224-0.5-0.5v-1c0-0.276,0.224-0.5,0.5-0.5s0.5,0.224,0.5,0.5v1 C63,82.776,62.776,83,62.5,83z M77.5,78h-5c-0.276,0-0.5-0.224-0.5-0.5s0.224-0.5,0.5-0.5h5c0.276,0,0.5,0.224,0.5,0.5 S77.776,78,77.5,78z M69.5,78h-2c-0.276,0-0.5-0.224-0.5-0.5s0.224-0.5,0.5-0.5h2c0.276,0,0.5,0.224,0.5,0.5S69.776,78,69.5,78z M64.5,78h-1c-0.276,0-0.5-0.224-0.5-0.5s0.224-0.5,0.5-0.5h1c0.276,0,0.5,0.224,0.5,0.5S64.776,78,64.5,78z"/><path fill="#1f212b" d="M48,68H37.5c-0.276,0-0.5-0.224-0.5-0.5s0.224-0.5,0.5-0.5H47v-4.5c0-0.276,0.224-0.5,0.5-0.5 s0.5,0.224,0.5,0.5V68z"/><path fill="#1f212b" d="M53,53h-5.5c-0.276,0-0.5-0.224-0.5-0.5s0.224-0.5,0.5-0.5H52v-4.5c0-0.276,0.224-0.5,0.5-0.5 s0.5,0.224,0.5,0.5V53z"/><path fill="#1f212b" d="M68,43h-6v-5.5c0-0.276,0.224-0.5,0.5-0.5s0.5,0.224,0.5,0.5V42h4v-4.5c0-0.276,0.224-0.5,0.5-0.5 s0.5,0.224,0.5,0.5V43z"/><path fill="#1f212b" d="M27.5,78c-0.276,0-0.5-0.224-0.5-0.5V72h5.5c0.276,0,0.5,0.224,0.5,0.5S32.776,73,32.5,73H28v4.5 C28,77.776,27.776,78,27.5,78z M37.5,77c-0.276,0-0.5-0.224-0.5-0.5v-1c0-0.276,0.224-0.5,0.5-0.5s0.5,0.224,0.5,0.5v1 C38,76.776,37.776,77,37.5,77z M37.5,73h-2c-0.276,0-0.5-0.224-0.5-0.5s0.224-0.5,0.5-0.5h2c0.276,0,0.5,0.224,0.5,0.5 S37.776,73,37.5,73z"/><rect width="5" height="5" x="22.5" y="27.5" fill="#a1d3a2"/><rect width="5" height="5" x="27.5" y="22.5" fill="#a1d3a2"/><path fill="#1f212b" d="M27.5,33c-0.276,0-0.5-0.224-0.5-0.5V27h5v-4.5c0-0.276,0.224-0.5,0.5-0.5s0.5,0.224,0.5,0.5V28h-5 v4.5C28,32.776,27.776,33,27.5,33z"/><path fill="#1f212b" d="M23,42.737h-5.5c-0.276,0-0.5-0.224-0.5-0.5s0.224-0.5,0.5-0.5H22V32h10.5 c0.276,0,0.5,0.224,0.5,0.5S32.776,33,32.5,33H23V42.737z"/><path fill="#1f212b" d="M38.378,43H32v-5h-4v4.737h-5.5c-0.276,0-0.5-0.224-0.5-0.5s0.224-0.5,0.5-0.5H27V37h6v5h4.378 v-5.052H42.5c0.276,0,0.5,0.224,0.5,0.5s-0.224,0.5-0.5,0.5h-4.122V43z"/><path fill="#1f212b" d="M69,83H31c-7.72,0-14-6.28-14-14V31c0-7.72,6.28-14,14-14h38c7.72,0,14,6.28,14,14v38 C83,76.72,76.72,83,69,83z M31,19c-6.617,0-12,5.383-12,12v38c0,6.617,5.383,12,12,12h38c6.617,0,12-5.383,12-12V31 c0-6.617-5.383-12-12-12H31z"/></svg>