<?xml version="1.0" encoding="UTF-8"?>
<!DOCTYPE svg PUBLIC "-//W3C//DTD SVG 1.1//EN" "http://www.w3.org/Graphics/SVG/1.1/DTD/svg11.dtd">
<!-- Creator: CorelDRAW -->
<svg xmlns="http://www.w3.org/2000/svg" xml:space="preserve" width="6.82666in" height="6.82666in" style="shape-rendering:geometricPrecision; text-rendering:geometricPrecision; image-rendering:optimizeQuality; fill-rule:evenodd; clip-rule:evenodd"
viewBox="0 0 6.82666 6.82666"
 xmlns:xlink="http://www.w3.org/1999/xlink">
 <defs>
  <style type="text/css">
   <![CDATA[
    .fil0 {fill:none}
    .fil4 {fill:#EFEBE9}
    .fil2 {fill:#F4511E}
    .fil1 {fill:#FF7043}
    .fil3 {fill:#4DD0E1;fill-rule:nonzero}
   ]]>
  </style>
 </defs>
 <g id="Layer_x0020_1">
  <metadata id="CorelCorpID_0Corel-Layer"/>
  <g id="_250323280">
   <rect id="_250323040" class="fil0" width="6.82666" height="6.82666"/>
   <rect id="_250323496" class="fil0" x="0.853331" y="0.853331" width="5.12" height="5.12"/>
  </g>
  <g id="_250322104">
   <polygon id="_250323088" class="fil1" points="1.36441,3.04297 3.41333,1.2198 5.46225,3.11537 5.46225,5.79655 1.36441,5.79655 "/>
   <polygon id="_250322248" class="fil2" points="1.36826,3.03955 3.41333,1.2198 5.46225,3.11537 5.46225,3.42249 3.41333,1.52693 1.36441,3.42248 1.36441,3.04311 "/>
   <polygon id="_250322752" class="fil3" points="0.853331,3.3985 3.31877,1.11759 3.41333,1.03011 3.50789,1.11759 5.97333,3.3985 5.78421,3.60292 3.41333,1.40949 1.04245,3.60292 "/>
   <path id="_250322680" class="fil2" d="M3.33624 3.13432l0.263378 0c0.0787835,0 0.150362,0.032185 0.202209,0.0840276 0.0518425,0.0518465 0.0840236,0.123421 0.0840236,0.202205l0 0.410008 0.144961 0c0.0340118,0 0.065374,0.0127559 0.0884882,0.0332992 0.0252638,0.0224646 0.0409488,0.0540945 0.0409488,0.0894685l0 1.00348c0,0.035378 -0.015685,0.0670118 -0.0409528,0.0894646 -0.0231142,0.0205512 -0.0544724,0.0333031 -0.0884843,0.0333031l-1.11513 0c-0.0340118,0 -0.065374,-0.0127559 -0.0884882,-0.0332992 -0.0252638,-0.0224567 -0.0409528,-0.0540906 -0.0409528,-0.0894685l0 -1.00348c0,-0.0353819 0.015685,-0.0670118 0.0409528,-0.0894685 0.0231102,-0.0205472 0.0544724,-0.0332992 0.0884882,-0.0332992l0.134327 0 0 -0.410008c0,-0.0787835 0.0321811,-0.150358 0.0840236,-0.202205 0.0518465,-0.0518425 0.123421,-0.0840276 0.202209,-0.0840276zm-0.147453 0.69624l0.55828 0 0 -0.410008c0,-0.0404764 -0.0166063,-0.0773268 -0.0433622,-0.104083 -0.0267559,-0.0267559 -0.0636102,-0.0433661 -0.104087,-0.0433661l-0.263378 0c-0.0404764,0 -0.0773268,0.0166102 -0.104087,0.0433661 -0.0267559,0.0267559 -0.0433661,0.0636063 -0.0433661,0.104083l0 0.410008z"/>
   <path id="_250322224" class="fil4" d="M3.27633 3.09333l0.263378 0c0.0787835,0 0.150362,0.032185 0.202209,0.0840276 0.0518425,0.0518465 0.0840236,0.123421 0.0840236,0.202205l0 0.410008 0.144961 0c0.0340118,0 0.065374,0.0127559 0.0884882,0.0332992 0.0252638,0.0224646 0.0409488,0.0540945 0.0409488,0.0894685l0 1.00348c0,0.035378 -0.015685,0.0670118 -0.0409528,0.0894646 -0.0231142,0.0205512 -0.0544724,0.0333031 -0.0884843,0.0333031l-1.11513 0c-0.0340118,0 -0.065374,-0.0127559 -0.0884882,-0.0332992 -0.0252638,-0.0224567 -0.0409528,-0.0540906 -0.0409528,-0.0894685l0 -1.00348c0,-0.0353819 0.015685,-0.0670118 0.0409528,-0.0894685 0.0231102,-0.0205472 0.0544724,-0.0332992 0.0884882,-0.0332992l0.134327 0 0 -0.410008c0,-0.0787835 0.0321811,-0.150358 0.0840236,-0.202205 0.0518465,-0.0518425 0.123421,-0.0840276 0.202209,-0.0840276zm-0.147453 0.69624l0.55828 0 0 -0.410008c0,-0.0404764 -0.0166063,-0.0773268 -0.0433622,-0.104083 -0.0267559,-0.0267559 -0.0636102,-0.0433661 -0.104087,-0.0433661l-0.263378 0c-0.0404764,0 -0.0773268,0.0166102 -0.104087,0.0433661 -0.0267559,0.0267559 -0.0433661,0.0636063 -0.0433661,0.104083l0 0.410008z"/>
  </g>
 </g>
</svg>
