<svg id="icons" xmlns="http://www.w3.org/2000/svg" viewBox="0 0 340 340"><path d="M43.355,55.962S12.488,57.444,12.488,93.388V280.246l30.867-21.093Z" style="fill:#4e73a8"/><path d="M33.581,259.153A21.093,21.093,0,0,0,12.5,281.015c.406,11.43,10.147,20.324,21.585,20.324H192.905a2.237,2.237,0,0,0,1.36-4.009c-3.909-3.1-7.836-8.385-7.836-17.084,0-17.317,15.563-21.093,15.563-21.093Z" style="fill:#eaf5ff"/><rect x="43.355" y="55.962" width="158.637" height="203.191" style="fill:#88b0ea"/><path d="M37.2,284.246H186.737a26.425,26.425,0,0,1,0-8H37.2C31.955,276.331,31.929,284.156,37.2,284.246Z" style="fill:#c9d4ff"/><rect x="51.189" y="276.246" width="31.058" height="25.093" style="fill:#c9d4ff"/><polygon points="60.694 276.246 60.694 330 82.247 319.178 103.8 330 103.8 276.246 60.694 276.246" style="fill:#f47676"/><path d="M145.216,78.565a2,2,0,0,1-1.322,3.193L124.152,84.05A13.973,13.973,0,0,0,111.79,97.93v28.662a13.974,13.974,0,0,0,12.362,13.881l19.742,2.292a1.992,1.992,0,0,1,1.322,3.193l-12.338,15.58a13.974,13.974,0,0,0,1.073,18.557l20.267,20.267a14.053,14.053,0,0,0,18.772.9L188.355,189.1a2,2,0,0,1,3.193,1.322l2.292,19.742a13.937,13.937,0,0,0,4.953,9.122h3.2V55.962H129.957a13.917,13.917,0,0,0,2.921,7.023Z" style="fill:#648ecc"/><path d="M322.227,92,296.447,89v.05a74.4,74.4,0,0,0-4.462-10.745l.054.056,16.112-20.346a5.973,5.973,0,0,0-.459-7.933L287.426,29.818a5.974,5.974,0,0,0-7.933-.459L259.148,45.471l.055.055a74.24,74.24,0,0,0-10.745-4.462h.05l-2.993-25.779A5.974,5.974,0,0,0,239.581,10H210.919a5.974,5.974,0,0,0-5.934,5.285l-2.993,25.779h.05A74.348,74.348,0,0,0,191.3,45.525l.055-.054L171.007,29.359a5.974,5.974,0,0,0-7.933.459L142.807,50.085a5.973,5.973,0,0,0-.459,7.933l14.256,18a4.927,4.927,0,0,1,.653,5.035c-1.51,2.814-2.108,8-6.228,8.343L128.273,92a5.972,5.972,0,0,0-5.284,5.933v28.662a5.973,5.973,0,0,0,5.284,5.934l22.756,2.6a4.938,4.938,0,0,1,4.035,3.111c1.1,3.466,4.181,6.937,1.54,10.267l-14.256,18a5.973,5.973,0,0,0,.459,7.933l20.267,20.267a5.974,5.974,0,0,0,7.933.459l17.868-14.237c3.311-2.722,7.015.6,10.364,1.556a4.9,4.9,0,0,1,3.153,4.044l2.593,22.711a5.974,5.974,0,0,0,5.934,5.285h28.662a5.974,5.974,0,0,0,5.934-5.285l2.993-25.779h-.05A74.353,74.353,0,0,0,259.2,179l-.055.054,20.345,16.113a5.974,5.974,0,0,0,7.933-.459l20.267-20.267a5.973,5.973,0,0,0,.459-7.933L292.04,146.159l-.054.056a74.4,74.4,0,0,0,4.462-10.745v.05l25.78-2.994a5.973,5.973,0,0,0,5.284-5.934V97.93A5.972,5.972,0,0,0,322.227,92Z" style="fill:#ffd071"/><path d="M248.508,112.261A23.258,23.258,0,0,1,225.25,135.52c-30.789-1.064-30.781-45.457,0-46.517A23.258,23.258,0,0,1,248.508,112.261Z" style="fill:#fff"/><path d="M12.488,284.246a4,4,0,0,1-4-4V93.389c0-39.3,34.327-41.406,34.675-41.422a4.024,4.024,0,0,1,4.191,4v184.99c-.077,5.2-7.9,5.305-8,0V60.643c-7.618,1.846-22.866,8.56-22.866,32.746V280.246A4,4,0,0,1,12.488,284.246Z" style="fill:#383a49"/><path d="M201.992,305.339H122.673a4,4,0,0,1,0-8h65.848c-8.051-8.431-8.044-25.763,0-34.186H33.581a17.093,17.093,0,0,0,0,34.186H60.694c5.28.091,5.237,7.918,0,8H33.581c-33.168-1.159-33.24-49,0-50.186H201.992c4.617.013,5.529,6.754.943,7.888a17.3,17.3,0,0,0-12.506,17.2c0,14.011,12,17.082,12.507,17.205C207.416,298.542,206.716,305.326,201.992,305.339Z" style="fill:#383a49"/><path d="M201.992,263.153a4,4,0,0,1-4-4V232.788a4,4,0,0,1,8,0v26.365A4,4,0,0,1,201.992,263.153Z" style="fill:#383a49"/><path d="M141.294,59.962H43.354c-5.225-.08-5.283-7.908,0-8h97.939C146.52,52.042,146.577,59.87,141.294,59.962Z" style="fill:#383a49"/><path d="M60.693,334a4.024,4.024,0,0,1-4-4V280.246a4,4,0,0,1,4-4H103.8a4,4,0,0,1,4,4V330a4,4,0,0,1-6.405,3.2L82.247,318.79,63.1,333.2A4.007,4.007,0,0,1,60.693,334Zm21.554-24.216a3.994,3.994,0,0,1,2.405.8l15.149,11.4V284.246H64.694v37.738l15.148-11.4A3.994,3.994,0,0,1,82.247,309.784Z" style="fill:#383a49"/><path d="M239.581,218.523H210.919a9.972,9.972,0,0,1-9.907-8.824l-2.705-23.3c-2.173-.791-4.322-1.682-6.425-2.667L173.49,198.3a9.974,9.974,0,0,1-13.244-.767l-20.267-20.267a9.972,9.972,0,0,1-.767-13.245l14.564-18.391c-.984-2.107-1.876-4.254-2.666-6.425l-23.3-2.705a9.973,9.973,0,0,1-8.825-9.907V97.931a9.973,9.973,0,0,1,8.825-9.908l23.3-2.706c.79-2.17,1.682-4.318,2.667-6.425L139.212,60.5a9.97,9.97,0,0,1,.767-13.244L160.246,26.99a9.971,9.971,0,0,1,13.244-.766l18.391,14.564c2.1-.984,4.253-1.876,6.426-2.667l2.705-23.3A9.972,9.972,0,0,1,210.919,6h28.662a9.972,9.972,0,0,1,9.907,8.824l2.705,23.3c2.173.791,4.322,1.683,6.426,2.667L277.01,26.224a9.971,9.971,0,0,1,13.244.766l20.267,20.267a9.97,9.97,0,0,1,.767,13.244L296.723,78.892c.985,2.107,1.877,4.254,2.667,6.425l23.3,2.706h0a9.973,9.973,0,0,1,8.824,9.908v28.662a9.973,9.973,0,0,1-8.824,9.907l-23.3,2.705c-.79,2.171-1.682,4.318-2.666,6.425l14.564,18.391a9.972,9.972,0,0,1-.767,13.245l-20.267,20.267a9.972,9.972,0,0,1-13.244.767l-18.392-14.566c-2.1.985-4.252,1.876-6.425,2.667l-2.705,23.3A9.972,9.972,0,0,1,239.581,218.523Zm-33.543-34.9,2.921,25.155a1.973,1.973,0,0,0,1.96,1.746h28.662a1.973,1.973,0,0,0,1.96-1.746l2.941-25.329a3.973,3.973,0,0,1,2.738-3.792,70.778,70.778,0,0,0,10.166-4.223,4,4,0,0,1,4.865.973l19.726,15.622a1.972,1.972,0,0,0,2.62-.151l20.268-20.268a1.974,1.974,0,0,0,.152-2.621l-15.761-19.9a3.958,3.958,0,0,1-.833-4.689,70.6,70.6,0,0,0,4.221-10.167,4.039,4.039,0,0,1,3.972-2.758l25.15-2.92a1.974,1.974,0,0,0,1.746-1.96V97.931a1.973,1.973,0,0,0-1.746-1.96l-25.322-2.942a3.972,3.972,0,0,1-3.8-2.737,70.6,70.6,0,0,0-4.221-10.167,4,4,0,0,1,.97-4.861l15.624-19.73a1.974,1.974,0,0,0-.152-2.621L284.6,32.646a1.976,1.976,0,0,0-2.621-.151l-19.9,15.762a3.963,3.963,0,0,1-4.688.832,70.778,70.778,0,0,0-10.166-4.223,4,4,0,0,1-2.758-3.965l-2.921-25.155A1.973,1.973,0,0,0,239.581,14H210.919a1.973,1.973,0,0,0-1.96,1.746l-2.941,25.328a3.972,3.972,0,0,1-2.738,3.792,70.778,70.778,0,0,0-10.166,4.223,4,4,0,0,1-4.862-.97L168.523,32.495a1.973,1.973,0,0,0-2.62.151L145.635,52.913a1.974,1.974,0,0,0-.152,2.621l15.762,19.9a3.96,3.96,0,0,1,.832,4.688,70.585,70.585,0,0,0-4.221,10.166,4.029,4.029,0,0,1-3.972,2.759l-25.149,2.921a1.973,1.973,0,0,0-1.747,1.96v28.662a1.974,1.974,0,0,0,1.746,1.96l25.326,2.94a3.973,3.973,0,0,1,3.8,2.738,70.6,70.6,0,0,0,4.221,10.167,4,4,0,0,1-.972,4.864l-15.622,19.726a1.974,1.974,0,0,0,.152,2.621L165.9,191.877a1.974,1.974,0,0,0,2.621.151l19.9-15.761a3.962,3.962,0,0,1,4.689-.834,70.778,70.778,0,0,0,10.166,4.223A4,4,0,0,1,206.038,183.622Zm19.212-44.1a27.288,27.288,0,0,1-27.258-27.257c1.281-36.078,53.241-36.069,54.516,0A27.288,27.288,0,0,1,225.25,139.519Zm0-46.516a19.28,19.28,0,0,0-19.258,19.259c.9,25.488,37.615,25.481,38.516,0A19.28,19.28,0,0,0,225.25,93Z" style="fill:#383a49"/></svg>